<svg width="55" height="48" viewBox="0 0 55 48" fill="none" xmlns="http://www.w3.org/2000/svg">
<path d="M4.15819 13.0965L4.15821 13.0966L4.15139 13.0991L4.13916 13.1037C2.94145 13.5876 1.9963 14.5499 1.41773 15.9247C0.537312 18.0203 0.639679 20.8894 1.75394 23.5964C3.33031 27.3722 6.3513 29.7751 9.16892 29.7751H9.16938C9.76142 29.7756 10.3483 29.6651 10.8996 29.4494L10.9024 29.4483L10.9105 29.4452C10.9115 29.4448 10.9126 29.4444 10.9136 29.444C12.118 28.9602 13.0658 27.9974 13.6433 26.6214L13.6433 26.6213C14.5224 24.5275 14.4138 21.6564 13.2849 18.9457L13.2847 18.9453C11.7385 15.2219 8.74947 12.815 5.95692 12.7709L5.88878 12.7709L5.88818 12.7709C5.29622 12.7702 4.70938 12.8806 4.15819 13.0965ZM18.1626 28.6427L18.1623 28.6434C17.0058 30.5557 15.241 31.6161 13.5019 32.661L13.4618 32.6851C13.4617 32.6852 13.4617 32.6852 13.4616 32.6852C11.406 33.9213 9.47012 35.1043 8.63267 37.4005L8.63018 37.4073L8.62748 37.4141C8.29487 38.2497 8.12546 39.1413 8.12843 40.0407V40.0423C8.12843 43.8332 11.0709 46.879 14.6388 46.879C16.5443 46.879 18.5761 46.2201 20.8392 45.4862L20.8468 45.4837L20.8479 45.4833L20.8885 45.4701C23.0084 44.777 25.3044 44.0265 27.3205 44.0265C29.3339 44.0265 31.6322 44.7751 33.7575 45.4673L33.8072 45.4835C36.0773 46.2228 38.1224 46.8835 40.0247 46.8835C43.599 46.8835 46.5463 43.8369 46.5463 40.0468L46.5463 40.0432C46.5528 39.1446 46.387 38.253 46.0578 37.4168L46.0577 37.4169L46.0534 37.4051C45.216 35.1111 43.2812 33.9292 41.2244 32.6931L41.2242 32.693L41.1754 32.6636C39.4339 31.6162 37.6695 30.5549 36.5126 28.6435L36.5124 28.6431C34.9916 26.1255 33.8167 24.1881 32.4451 22.865C31.1083 21.5754 29.5847 20.8728 27.3318 20.8728C25.0788 20.8728 23.5565 21.5754 22.2218 22.8647C20.8522 24.1878 19.6801 26.125 18.1626 28.6427ZM38.8685 16.1058L38.8686 16.1057C39.9989 14.6886 40.801 12.7616 41.1007 10.6773L41.1007 10.6768C41.4606 8.19029 41.0879 5.89923 40.2119 4.18277C39.3366 2.46766 37.9789 1.35443 36.3556 1.11574L36.3545 1.11558C36.1432 1.08402 35.9298 1.06818 35.7161 1.06817C34.1574 1.06817 32.5892 1.89294 31.3235 3.48035L31.3234 3.48056C30.1933 4.89634 29.3911 6.82545 29.0903 8.9135L29.0903 8.91383C28.7304 11.4003 29.1031 13.6914 29.9791 15.4078C30.8544 17.123 32.2121 18.2362 33.8354 18.4749L33.8364 18.475C34.0478 18.5066 34.2612 18.5224 34.4749 18.5224C36.0343 18.5224 37.6003 17.697 38.8685 16.1058ZM20.8259 18.475L20.827 18.4749C22.4503 18.2362 23.808 17.1229 24.6833 15.4081C25.5593 13.6919 25.932 11.4014 25.5721 8.91611L25.572 8.91543C25.2724 6.82531 24.4702 4.8963 23.3401 3.48056L23.34 3.48035C22.0745 1.89313 20.5062 1.06805 18.9471 1.06592C18.7335 1.06594 18.5202 1.08179 18.309 1.11333L18.3082 1.11344C16.6848 1.35317 15.327 2.46705 14.4516 4.18221C13.5757 5.8986 13.203 8.18893 13.5627 10.6741C13.8669 12.7621 14.665 14.6892 15.7939 16.1059C17.0622 17.6971 18.627 18.5224 20.1875 18.5224C20.4012 18.5224 20.6146 18.5066 20.8259 18.475ZM43.7498 29.4441L43.757 29.4467L43.7641 29.4495C44.3142 29.6651 44.8999 29.7755 45.4908 29.7751H45.4912C48.3055 29.7751 51.3256 27.3709 52.894 23.5994C54.0206 20.8889 54.1284 18.0209 53.249 15.9221C52.673 14.5482 51.728 13.5839 50.5331 13.1043L50.5262 13.1018L50.5191 13.0993L50.512 13.0965C49.9609 12.8805 49.3741 12.77 48.7822 12.7709H48.7815C45.9672 12.7709 42.9471 15.1751 41.3787 18.9466C40.2521 21.6571 40.1443 24.5251 41.0237 26.6239C41.5992 27.9965 42.5437 28.9573 43.7434 29.4418L43.7498 29.4441Z" fill="#1E2228" fill-opacity="0.89" stroke="black"/>
</svg>
