<svg width="52" height="60" viewBox="0 0 52 60" fill="none" xmlns="http://www.w3.org/2000/svg">
<g id="&#240;&#159;&#166;&#134; icon &#34;cat&#34;">
<path id="Vector" d="M47.7216 29.9059C47.7216 31.1235 48.3267 33.5588 49.5369 37.2118C50.7471 40.8647 51.3522 43.3 51.3522 44.5177C51.3522 46.991 50.9835 49.3312 50.246 51.5382C49.5085 53.7451 48.4307 55.5621 47.0125 56.989C45.5942 58.416 44.0152 59.1294 42.2755 59.1294H16.8608C16.3691 59.1294 15.9436 58.9487 15.5844 58.5872C15.2251 58.2257 15.0454 57.7976 15.0454 57.303C15.0454 56.8083 15.2251 56.3802 15.5844 56.0187C15.9436 55.6572 16.3691 55.4765 16.8608 55.4765C17.3902 55.4765 17.8252 55.3053 18.1655 54.9628C18.5059 54.6203 18.6761 54.1827 18.6761 53.65C18.6761 52.6607 18.2979 51.5096 17.5415 50.1968C16.7851 48.8841 15.8775 47.5332 14.8185 46.1444C13.7596 44.7555 12.7006 43.319 11.6417 41.835C10.5827 40.351 9.67505 38.7148 8.91866 36.9264C8.16226 35.138 7.78407 33.4066 7.78407 31.7324C7.78407 28.8785 8.91866 26.5193 11.1878 24.6548C10.734 23.2849 9.59941 22.6 7.78407 22.6C6.6873 22.6 5.54326 22.21 4.35194 21.4299C3.16062 20.6499 2.22459 19.8318 1.54383 18.9756C0.863081 18.1195 0.522705 17.5011 0.522705 17.1206C0.522705 16.6259 0.702348 16.1979 1.06163 15.8364C1.42092 15.4749 1.84639 15.2941 2.33805 15.2941C2.6406 15.2941 2.96207 15.0278 3.30245 14.4951C3.64282 13.9623 4.03047 13.2964 4.4654 12.4974C4.90032 11.6983 5.40143 10.8897 5.96873 10.0716C6.53602 9.25347 7.29241 8.49244 8.2379 7.78848C9.18339 7.08453 10.2423 6.59938 11.4148 6.33302V0.682373C12.2846 0.682373 13.3057 1.35779 14.4781 2.70861C15.6505 4.05944 16.4069 5.45783 16.7473 6.90379C18.5627 7.66482 19.9431 8.98711 20.8886 10.8707C21.8341 12.7542 22.3068 14.8375 22.3068 17.1206C22.3068 18.2241 22.5432 19.2705 23.0159 20.2599C23.4887 21.2492 24.16 22.1339 25.0298 22.9139C25.8997 23.694 26.6088 24.2838 27.1572 24.6833C27.7055 25.0829 28.3958 25.53 29.2278 26.0247C29.3791 26.1388 29.4925 26.2149 29.5682 26.253C31.7617 27.5087 33.577 28.7263 35.0142 29.9059C37.6237 32.0748 39.7889 34.7955 41.5097 38.0679C43.2305 41.3404 44.0909 44.0991 44.0909 46.3441C44.0909 46.4963 44.1098 46.6676 44.1476 46.8578C44.1854 47.0481 44.3556 47.3144 44.6582 47.6569C44.9607 47.9994 45.3768 48.1706 45.9062 48.1706C46.4357 48.1706 46.8706 47.8757 47.211 47.2859C47.5514 46.6961 47.7216 45.7734 47.7216 44.5177C47.7216 43.1859 47.4757 41.8541 46.9841 40.5223C46.4924 39.1905 45.8873 37.9252 45.1687 36.7266C44.4502 35.528 43.7316 34.2818 43.013 32.9881C42.2945 31.6943 41.6893 30.1437 41.1977 28.3363C40.706 26.5288 40.4602 24.6167 40.4602 22.6C40.4602 20.7735 41.2166 19.0993 42.7294 17.5772C44.2422 16.0552 45.9062 15.2941 47.7216 15.2941C48.7427 15.2941 49.6031 15.6461 50.3028 16.3501C51.0024 17.054 51.3522 17.9197 51.3522 18.9471C51.3522 19.5559 51.2388 20.0981 51.0119 20.5738C50.785 21.0494 50.4919 21.487 50.1326 21.8866C49.7733 22.2861 49.5747 22.5239 49.5369 22.6C48.3267 24.6167 47.7216 27.052 47.7216 29.9059Z" fill="white"/>
</g>
</svg>
