<svg width="63" height="61" viewBox="0 0 63 61" fill="none" xmlns="http://www.w3.org/2000/svg">
<g filter="url(#filter0_d_78_184)">
<path d="M4.95676 20.7311C5.58128 19.2468 6.61877 18.1767 7.95783 17.6377L7.97584 17.631C8.58532 17.3922 9.23421 17.2701 9.88878 17.2709H9.9608C13.026 17.317 16.1554 19.922 17.7465 23.7535C18.9134 26.5554 19.0473 29.5689 18.1043 31.8149C17.4809 33.3002 16.4412 34.3703 15.0965 34.9093L15.0819 34.915C14.4723 35.1535 13.8235 35.2757 13.1689 35.2751C10.0745 35.2751 6.91247 32.6701 5.29209 28.7879C4.13982 25.9894 4.01267 22.9782 4.95676 20.7311ZM17.2041 37.2566C18.9719 36.1944 20.6429 35.1895 21.7344 33.3846C24.7456 28.3885 26.564 25.3728 31.3318 25.3728C36.0995 25.3728 37.9224 28.3885 40.9404 33.3846C42.0341 35.1918 43.7085 36.1978 45.4819 37.2645C47.5153 38.4866 49.6161 39.7491 50.5231 42.2337C50.8757 43.1293 51.0533 44.0843 51.0463 45.0468C51.0463 49.0921 47.8956 52.3835 44.0247 52.3835C42.0274 52.3835 39.9017 51.6915 37.6523 50.9589C35.4896 50.2545 33.2537 49.5265 31.3205 49.5265C29.3873 49.5265 27.157 50.2545 25.0022 50.9589C22.7573 51.687 20.6418 52.379 18.6388 52.379C14.7735 52.379 11.6284 49.0876 11.6284 45.0423C11.6253 44.0791 11.8067 43.1241 12.1629 42.2292C13.0699 39.7423 15.1719 38.4787 17.2041 37.2566ZM43.2595 21.4175C41.9205 23.0975 40.2213 24.0224 38.4749 24.0224C38.2365 24.0224 37.9984 24.0048 37.7626 23.9696C34.1202 23.4339 31.8505 18.9892 32.5954 13.8422C32.9071 11.6783 33.7398 9.66299 34.9326 8.16865C36.2694 6.49201 37.9708 5.56817 39.7161 5.56817C39.9545 5.56818 40.1926 5.58585 40.4284 5.62106C44.0708 6.15668 46.3405 10.6015 45.5956 15.7484C45.285 17.9089 44.4523 19.922 43.2595 21.4175ZM24.8998 23.9696C24.664 24.0048 24.4259 24.0224 24.1875 24.0224C22.4399 24.0224 20.7419 23.0975 19.4029 21.4175C18.2112 19.922 17.383 17.9089 17.0679 15.7462C16.323 10.6015 18.5927 6.15668 22.2351 5.61881C22.4709 5.5836 22.709 5.56593 22.9474 5.56592C24.6927 5.56817 26.3941 6.49201 27.7309 8.16865C28.9237 9.66299 29.7564 11.6783 30.067 13.8445C30.8119 18.9892 28.5422 23.4339 24.8998 23.9696ZM47.5816 34.915L47.5659 34.9093C46.2235 34.3703 45.1848 33.3014 44.5626 31.8171C43.6196 29.5666 43.7524 26.5565 44.917 23.7546C46.5295 19.877 49.6904 17.2709 52.7815 17.2709C53.4361 17.2699 54.085 17.3921 54.6944 17.631L54.7102 17.6366C56.0492 18.1711 57.0879 19.2446 57.7101 20.7288C58.6531 22.9793 58.5203 25.9894 57.3557 28.7913C55.7432 32.669 52.5823 35.2751 49.4912 35.2751C48.8378 35.2756 48.19 35.1534 47.5816 34.915Z" fill="white"/>
</g>
<defs>
<filter id="filter0_d_78_184" x="-1.47495" y="0.166992" width="65.6134" height="65.6133" filterUnits="userSpaceOnUse" color-interpolation-filters="sRGB">
<feFlood flood-opacity="0" result="BackgroundImageFix"/>
<feColorMatrix in="SourceAlpha" type="matrix" values="0 0 0 0 0 0 0 0 0 0 0 0 0 0 0 0 0 0 127 0" result="hardAlpha"/>
<feOffset dy="4"/>
<feGaussianBlur stdDeviation="2"/>
<feComposite in2="hardAlpha" operator="out"/>
<feColorMatrix type="matrix" values="0 0 0 0 0 0 0 0 0 0 0 0 0 0 0 0 0 0 0.25 0"/>
<feBlend mode="normal" in2="BackgroundImageFix" result="effect1_dropShadow_78_184"/>
<feBlend mode="normal" in="SourceGraphic" in2="effect1_dropShadow_78_184" result="shape"/>
</filter>
</defs>
</svg>
