<svg width="527" height="840" viewBox="0 0 527 840" fill="none" xmlns="http://www.w3.org/2000/svg">
<path d="M154.747 684.935C123.959 667.722 53.6972 690.913 36.9008 720.957C29.336 734.488 35.2112 748.383 52.6311 758.122C71.567 768.708 89.5069 765.975 104.694 774.465C120.012 783.029 127.115 799.763 145.884 810.256C163.304 819.995 178.218 817.723 185.782 804.191C202.579 774.148 185.535 702.147 154.747 684.935ZM100.378 648.122C103.856 632.433 96.2981 616.788 83.4993 613.175C70.7005 609.561 57.5077 619.351 54.0293 635.039C50.5509 650.728 58.1092 666.373 70.908 669.986C83.7068 673.6 96.8996 663.81 100.378 648.122ZM137.729 658.429C151.489 661.979 166.552 649.128 171.373 629.727C176.194 610.327 168.945 591.725 155.185 588.174C141.424 584.624 126.362 597.475 121.541 616.876C116.72 636.277 123.971 654.884 137.729 658.429ZM253.187 708.046C243.406 699.036 226.123 700.794 214.577 711.971C203.034 723.151 201.604 739.517 211.386 748.527C221.167 757.538 238.45 755.78 249.996 744.603C261.539 733.423 262.969 717.057 253.187 708.046ZM186.24 685.549C196.471 695.412 216.114 691.844 230.116 677.576C244.118 663.308 247.175 643.75 236.945 633.884C226.716 624.018 207.071 627.589 193.069 641.857C179.067 656.125 176.008 675.687 186.24 685.549Z" fill="#C46E24"/>
<path d="M385.747 501.935C354.959 484.722 284.697 507.913 267.901 537.957C260.336 551.488 266.211 565.383 283.631 575.122C302.567 585.708 320.507 582.975 335.694 591.465C351.012 600.029 358.115 616.763 376.884 627.256C394.304 636.995 409.218 634.723 416.782 621.191C433.579 591.148 416.535 519.147 385.747 501.935ZM331.378 465.122C334.856 449.433 327.298 433.788 314.499 430.175C301.701 426.561 288.508 436.351 285.029 452.039C281.551 467.728 289.109 483.373 301.908 486.986C314.707 490.6 327.9 480.81 331.378 465.122ZM368.729 475.429C382.489 478.979 397.552 466.128 402.373 446.727C407.194 427.327 399.945 408.725 386.185 405.174C372.424 401.624 357.362 414.475 352.541 433.876C347.72 453.277 354.971 471.884 368.729 475.429ZM484.187 525.046C474.406 516.036 457.123 517.794 445.577 528.971C434.034 540.151 432.604 556.517 442.386 565.527C452.167 574.538 469.45 572.78 480.996 561.603C492.539 550.423 493.969 534.057 484.187 525.046ZM417.24 502.549C427.471 512.412 447.114 508.844 461.116 494.576C475.118 480.308 478.175 460.75 467.945 450.884C457.716 441.018 438.071 444.589 424.069 458.857C410.067 473.125 407.008 492.687 417.24 502.549Z" fill="#A25411"/>
<path d="M154.747 312.935C123.959 295.722 53.6972 318.913 36.9008 348.957C29.336 362.488 35.2112 376.383 52.6311 386.122C71.567 396.708 89.5069 393.975 104.694 402.465C120.012 411.029 127.115 427.763 145.884 438.256C163.304 447.995 178.218 445.723 185.782 432.191C202.579 402.148 185.535 330.147 154.747 312.935ZM100.378 276.122C103.856 260.433 96.2981 244.788 83.4993 241.175C70.7005 237.561 57.5077 247.351 54.0293 263.039C50.5509 278.728 58.1092 294.373 70.908 297.986C83.7068 301.6 96.8996 291.81 100.378 276.122ZM137.729 286.429C151.489 289.979 166.552 277.128 171.373 257.727C176.194 238.327 168.945 219.725 155.185 216.174C141.424 212.624 126.362 225.475 121.541 244.876C116.72 264.277 123.971 282.884 137.729 286.429ZM253.187 336.046C243.406 327.036 226.123 328.794 214.577 339.971C203.034 351.151 201.604 367.517 211.386 376.527C221.167 385.538 238.45 383.78 249.996 372.603C261.539 361.423 262.969 345.057 253.187 336.046ZM186.24 313.549C196.471 323.412 216.114 319.844 230.116 305.576C244.118 291.308 247.175 271.75 236.945 261.884C226.716 252.018 207.071 255.589 193.069 269.857C179.067 284.125 176.008 303.687 186.24 313.549Z" fill="#9C5E15"/>
<path d="M385.747 129.935C354.959 112.722 284.697 135.913 267.901 165.957C260.336 179.488 266.211 193.383 283.631 203.122C302.567 213.708 320.507 210.975 335.694 219.465C351.012 228.029 358.115 244.763 376.884 255.256C394.304 264.995 409.218 262.723 416.782 249.191C433.579 219.148 416.535 147.147 385.747 129.935ZM331.378 93.1219C334.856 77.4334 327.298 61.7882 314.499 58.1748C301.701 54.5613 288.508 64.3507 285.029 80.0392C281.551 95.7277 289.109 111.373 301.908 114.986C314.707 118.6 327.9 108.81 331.378 93.1219ZM368.729 103.429C382.489 106.979 397.552 94.1283 402.373 74.7274C407.194 55.3265 399.945 36.7247 386.185 33.1743C372.424 29.6238 357.362 42.4748 352.541 61.8757C347.72 81.2765 354.971 99.8844 368.729 103.429ZM484.187 153.046C474.406 144.036 457.123 145.794 445.577 156.971C434.034 168.151 432.604 184.517 442.386 193.527C452.167 202.538 469.45 200.78 480.996 189.603C492.539 178.423 493.969 162.057 484.187 153.046ZM417.24 130.549C427.471 140.412 447.114 136.844 461.116 122.576C475.118 108.308 478.175 88.7501 467.945 78.8838C457.716 69.0175 438.071 72.589 424.069 86.8571C410.067 101.125 407.008 120.687 417.24 130.549Z" fill="#CC6D29"/>
</svg>
